<svg xmlns="http://www.w3.org/2000/svg" viewBox="0 0 170.14 41"><defs><style>.cls-1{fill:#fff;}</style></defs><path class="cls-1" d="M141.16,40.9h-6.34V12.4h6.34Z" transform="translate(-1)"/><path class="cls-1" d="M14.76,18.24A7,7,0,0,0,9.53,20.5a8.49,8.49,0,0,0-2.14,6.14,8.63,8.63,0,0,0,2.16,6.21A7.25,7.25,0,0,0,12,34.56a7.17,7.17,0,0,0,2.89.57,6.51,6.51,0,0,0,4.5-1.53,7.6,7.6,0,0,0,2.23-3.47l5.61,2.05a12.83,12.83,0,0,1-4.28,6.22A12.29,12.29,0,0,1,14.86,41,13.18,13.18,0,0,1,5,36.89,14.2,14.2,0,0,1,1,26.64,14.09,14.09,0,0,1,4.93,16.38a13.1,13.1,0,0,1,9.78-4.06,12.52,12.52,0,0,1,8.19,2.6A11.93,11.93,0,0,1,27,21.19l-5.73,2.1a7.15,7.15,0,0,0-2.11-3.56A6.24,6.24,0,0,0,14.76,18.24Z" transform="translate(-1)"/><path class="cls-1" d="M37.72,32.78a7.68,7.68,0,0,0,2.47,1.68,7.56,7.56,0,0,0,2.93.6,7.73,7.73,0,0,0,2.93-.58,7.62,7.62,0,0,0,2.48-1.68,8.57,8.57,0,0,0,2.21-6.29,8.37,8.37,0,0,0-2.21-6.19,7.67,7.67,0,0,0-10.81,0,8.37,8.37,0,0,0-2.21,6.19A8.6,8.6,0,0,0,37.72,32.78Zm5.41-20.46a13.74,13.74,0,0,1,10.15,4,13.91,13.91,0,0,1,4,10.21,13.93,13.93,0,0,1-4,10.23,13.71,13.71,0,0,1-10.15,4,13.68,13.68,0,0,1-10.11-4,14,14,0,0,1-4-10.23,13.91,13.91,0,0,1,4-10.21A13.63,13.63,0,0,1,43.13,12.32Z" transform="translate(-1)"/><path class="cls-1" d="M73.82,12.5V19a13.29,13.29,0,0,0-2.09-.17c-4.82,0-7.2,2.37-7.2,7.65V40.8H58.14V12.4h6.22V17a7.12,7.12,0,0,1,3-3.39,9.09,9.09,0,0,1,4.74-1.24A8.11,8.11,0,0,1,73.82,12.5Z" transform="translate(-1)"/><path class="cls-1" d="M82.54,23.62H96.77a5.8,5.8,0,0,0-.54-2.32,5.91,5.91,0,0,0-1.4-1.92,7.3,7.3,0,0,0-5.21-1.71,7,7,0,0,0-5,1.78A6.38,6.38,0,0,0,82.54,23.62Zm15,7,5.82,1.71a12.07,12.07,0,0,1-4.67,6.09,14.24,14.24,0,0,1-8.43,2.4,15.06,15.06,0,0,1-10.49-3.91,13.42,13.42,0,0,1-4.33-10.48,13.26,13.26,0,0,1,4.2-10.12,14,14,0,0,1,9.91-4c4.45,0,7.91,1.27,10.42,3.77s3.76,5.89,3.76,10.16a5.89,5.89,0,0,1-.18,2H82.37A6.92,6.92,0,0,0,83,31a6.71,6.71,0,0,0,1.74,2.24,8.12,8.12,0,0,0,5.5,2C94,35.28,96.43,33.72,97.54,30.6Z" transform="translate(-1)"/><path class="cls-1" d="M111.57,40.9h-6.49V0h6.54V16.47A7.78,7.78,0,0,1,115,13.6a11.92,11.92,0,0,1,5.41-1.17c4,0,7.22,1.31,9.51,4a15,15,0,0,1,3.41,10.13,15,15,0,0,1-3.58,10.3,12.13,12.13,0,0,1-9.57,4q-6,0-8.62-4.26Zm13-8.1a8.89,8.89,0,0,0,2.09-6.24,8.82,8.82,0,0,0-2.07-6.19,7,7,0,0,0-5.45-2.25,7.1,7.1,0,0,0-5.41,2.25,8.66,8.66,0,0,0-2.11,6.19,8.89,8.89,0,0,0,2.11,6.22,7.49,7.49,0,0,0,10.84,0Z" transform="translate(-1)"/><path class="cls-1" d="M171.14,40.88h-28v-5.6L160.84,18h-18V12.4h28.21v5.43L153.2,35.22h17.94v5.67Z" transform="translate(-1)"/></svg>